# xmcd
#
# Track frame offsets:
#	150
#	28820
#	54370
#	81030
#	122860
#	149860
#	165750
#
# Disc length: 2422 seconds
#
# Revision: 0
# Processed by: cddbd v1.5.1PL0 Copyright (c) Steve Scherf et al.
# Submitted via: EasyCDDAExtractor 8.0.2.1
#
DISCID=59097407
DTITLE=Ozzy Osbourne - Civic Center Glen Falls 05-04-83 Disc 1
DYEAR=1983
DGENRE=Hard Rock
TTITLE0=I Don't Know
TTITLE1=Mr Crowley
TTITLE2=Crazy Train
TTITLE3=Suicide Solution
TTITLE4=Revelation (Mother Earth)
TTITLE5=Steal Away (The Night)
TTITLE6=Drum Solo
EXTD=
EXTT0=
EXTT1=
EXTT2=
EXTT3=
EXTT4=
EXTT5=
EXTT6=
PLAYORDER=
